<svg width="32" height="22" viewBox="0 0 32 22" fill="none" xmlns="http://www.w3.org/2000/svg">
<path d="M20.9763 11.0601C20.9763 10.8071 21.1814 10.6019 21.4344 10.6019H23.3442C23.5972 10.6019 23.8023 10.8071 23.8023 11.0601C23.8023 11.3132 23.5972 11.5183 23.3442 11.5183H21.4344C21.1814 11.5183 20.9763 11.3132 20.9763 11.0601Z" fill="white"/>
<path fill-rule="evenodd" clip-rule="evenodd" d="M5.04071 0.887277C5.092 0.594624 5.20201 0 5.95567 0H17.2148C18.1457 0 18.9777 0.581433 19.2977 1.45579L21.5562 7.62596H28.9746C30.1528 7.62596 31.1079 8.58119 31.1079 9.75952V13.8871C31.671 14.7182 32 15.7209 32 16.8005C32 19.6721 29.6724 22 26.8013 22C24.841 22 23.1341 20.9149 22.2484 19.3125H9.7516C8.86587 20.9149 7.159 22 5.19872 22C2.32755 22 0 19.6721 0 16.8005C0 15.7122 0.334289 14.702 0.90577 13.8671V9.75952C0.90577 8.58119 1.86085 7.62596 3.039 7.62596H3.67112L4.88101 2.16934C4.91362 1.92712 4.93147 1.75118 4.94765 1.59166C4.97016 1.36984 4.98945 1.17976 5.04071 0.887277ZM2.76277 12.2059C3.4894 11.8198 4.31852 11.601 5.19872 11.601C8.0699 11.601 10.3974 13.9289 10.3974 16.8005C10.3974 17.0222 10.3836 17.2407 10.3566 17.4552H21.6434C21.6164 17.2407 21.6025 17.0222 21.6025 16.8005C21.6025 13.9289 23.9301 11.601 26.8013 11.601C27.687 11.601 28.521 11.8225 29.2509 12.2132V9.75952C29.2509 9.60694 29.1272 9.48324 28.9746 9.48324H3.039C2.88644 9.48324 2.76277 9.60693 2.76277 9.75952V12.2059ZM17.5539 2.09429L19.5787 7.62596H7.26635C5.57443 7.61585 5.79107 6.65177 5.98538 5.78711C5.9923 5.7563 5.99927 5.72531 6.00605 5.6948L6.00161 5.69397L6.78957 2.14026C6.82623 1.97493 6.97281 1.85728 7.14213 1.85728H17.2148C17.3663 1.85728 17.5018 1.95194 17.5539 2.09429ZM26.8013 20.1427C28.6469 20.1427 30.143 18.6464 30.143 16.8005C30.143 14.9546 28.6469 13.4583 26.8013 13.4583C24.9557 13.4583 23.4596 14.9546 23.4596 16.8005C23.4596 18.6464 24.9557 20.1427 26.8013 20.1427ZM8.54045 16.8005C8.54045 18.6464 7.04431 20.1427 5.19872 20.1427C3.35314 20.1427 1.857 18.6464 1.857 16.8005C1.857 14.9546 3.35314 13.4583 5.19872 13.4583C7.04431 13.4583 8.54045 14.9546 8.54045 16.8005Z" fill="white"/>
</svg>
